REM DIRINDEX 1\2,1\4,1\3\5,1\3\6,1\3\7
REM DIRNAME folder01,folder02,folder03,folder04,folder05,folder06,folder07
TITLE ""
FILE "CD1Track55.mp3" MP3
  TRACK 01 AUDIO
    TITLE "0:"
    INDEX 01 00:00:00
  TRACK 02 AUDIO
    TITLE "5:cjc083_1128"
    INDEX 01 00:00:27
  TRACK 03 AUDIO
    TITLE "0:"
    INDEX 01 00:01:34
  TRACK 04 AUDIO
    TITLE "6:cjc083_1129"
    INDEX 01 00:02:04
  TRACK 05 AUDIO
    TITLE "0:"
    INDEX 01 00:04:03
  TRACK 06 AUDIO
    TITLE "5:cjc083_1130"
    INDEX 01 00:04:46
  TRACK 07 AUDIO
    TITLE "0:"
    INDEX 01 00:05:69
  TRACK 08 AUDIO
    TITLE "6:cjc083_1131"
    INDEX 01 00:06:35
  TRACK 09 AUDIO
    TITLE "0:"
    INDEX 01 00:07:58
  TRACK 10 AUDIO
    TITLE "5:cjc083_1132"
    INDEX 01 00:08:24
  TRACK 11 AUDIO
    TITLE "0:"
    INDEX 01 00:09:30
  TRACK 12 AUDIO
    TITLE "6:cjc083_1133"
    INDEX 01 00:10:02
  TRACK 13 AUDIO
    TITLE "0:"
    INDEX 01 00:11:03
  TRACK 14 AUDIO
    TITLE "5:cjc083_1134"
    INDEX 01 00:11:48
  TRACK 15 AUDIO
    TITLE "0:"
    INDEX 01 00:12:71
  TRACK 16 AUDIO
    TITLE "6:cjc083_1135"
    INDEX 01 00:13:33
  TRACK 17 AUDIO
    TITLE "0:"
    INDEX 01 00:15:34
  TRACK 18 AUDIO
    TITLE "5:cjc083_1136"
    INDEX 01 00:16:02
  TRACK 19 AUDIO
    TITLE "0:"
    INDEX 01 00:17:12
  TRACK 20 AUDIO
    TITLE "6:cjc083_1137"
    INDEX 01 00:17:57
  TRACK 21 AUDIO
    TITLE "0:"
    INDEX 01 00:18:64
  TRACK 22 AUDIO
    TITLE "5:cjc083_1138"
    INDEX 01 00:19:34
  TRACK 23 AUDIO
    TITLE "0:"
    INDEX 01 00:20:49
  TRACK 24 AUDIO
    TITLE "6:cjc083_1139"
    INDEX 01 00:21:13
  TRACK 25 AUDIO
    TITLE "0:"
    INDEX 01 00:22:13
  TRACK 26 AUDIO
    TITLE "5:cjc083_1140"
    INDEX 01 00:22:48
  TRACK 27 AUDIO
    TITLE "0:"
    INDEX 01 00:24:10
  TRACK 28 AUDIO
    TITLE "6:cjc083_1141"
    INDEX 01 00:24:53
  TRACK 29 AUDIO
    TITLE "0:"
    INDEX 01 00:25:66
  TRACK 30 AUDIO
    TITLE "5:cjc083_1142"
    INDEX 01 00:26:32
  TRACK 31 AUDIO
    TITLE "0:"
    INDEX 01 00:28:04
  TRACK 32 AUDIO
    TITLE "6:cjc083_1143"
    INDEX 01 00:28:43
  TRACK 33 AUDIO
    TITLE "0:"
    INDEX 01 00:30:48
  TRACK 34 AUDIO
    TITLE "5:cjc083_1144"
    INDEX 01 00:31:18
  TRACK 35 AUDIO
    TITLE "0:"
    INDEX 01 00:32:43
  TRACK 36 AUDIO
    TITLE "6:cjc083_1145"
    INDEX 01 00:33:13
  TRACK 37 AUDIO
    TITLE "0:"
    INDEX 01 00:34:28
  TRACK 38 AUDIO
    TITLE "5:cjc083_1146"
    INDEX 01 00:34:67
  TRACK 39 AUDIO
    TITLE "0:"
    INDEX 01 00:36:03
  TRACK 40 AUDIO
    TITLE "6:cjc083_1147"
    INDEX 01 00:36:50
  TRACK 41 AUDIO
    TITLE "0:"
    INDEX 01 00:38:04
  TRACK 42 AUDIO
    TITLE "5:cjc083_1148"
    INDEX 01 00:38:45
  TRACK 43 AUDIO
    TITLE "0:"
    INDEX 01 00:39:56
  TRACK 44 AUDIO
    TITLE "6:cjc083_1149"
    INDEX 01 00:40:32
  TRACK 45 AUDIO
    TITLE "0:"
    INDEX 01 00:41:42
  TRACK 46 AUDIO
    TITLE "5:cjc083_1150"
    INDEX 01 00:42:06
  TRACK 47 AUDIO
    TITLE "0:"
    INDEX 01 00:43:19
  TRACK 48 AUDIO
    TITLE "6:cjc083_1151"
    INDEX 01 00:43:66
  TRACK 49 AUDIO
    TITLE "0:"
    INDEX 01 00:45:28
  TRACK 50 AUDIO
    TITLE "5:cjc083_1152"
    INDEX 01 00:45:73
  TRACK 51 AUDIO
    TITLE "0:"
    INDEX 01 00:47:34
  TRACK 52 AUDIO
    TITLE "6:cjc083_1153"
    INDEX 01 00:48:00
  TRACK 53 AUDIO
    TITLE "0:"
    INDEX 01 00:49:39
  TRACK 54 AUDIO
    TITLE "5:cjc083_1154"
    INDEX 01 00:50:07
  TRACK 55 AUDIO
    TITLE "0:"
    INDEX 01 00:51:30
  TRACK 56 AUDIO
    TITLE "6:cjc083_1155"
    INDEX 01 00:52:00
  TRACK 57 AUDIO
    TITLE "0:"
    INDEX 01 00:53:19
  TRACK 58 AUDIO
    TITLE "5:cjc083_1156"
    INDEX 01 00:53:60
  TRACK 59 AUDIO
    TITLE "0:"
    INDEX 01 00:54:66
  TRACK 60 AUDIO
    TITLE "6:cjc083_1157"
    INDEX 01 00:55:44
  TRACK 61 AUDIO
    TITLE "0:"
    INDEX 01 00:56:74
  TRACK 62 AUDIO
    TITLE "7:cjc083_1158"
    INDEX 01 00:58:36
  TRACK 63 AUDIO
    TITLE "0:"
    INDEX 01 01:08:70
